<svg version="1.1"
    baseProfile="full"
    width="400" height="400"
    xmlns="http://www.w3.org/2000/svg">

  <rect width="100%" height="100%" fill="white"/>
  <line x1="0" y1="0" x2="399" y2="0" stroke="rgb(0, 0, 0)" stroke-width="2"/>
  <line x1="0" y1="399" x2="399" y2="399" stroke="rgb(0, 0, 0)" stroke-width="2"/>
  <line x1="0" y1="0" x2="0" y2="399" stroke="rgb(0, 0, 0)" stroke-width="2"/>
  <line x1="399" y1="0" x2="399" y2="399" stroke="rgb(0, 0, 0)" stroke-width="2"/>
  <line x1="200" y1="200" x2="200" y2="400" stroke="rgb(255, 0, 0)" stroke-width="2"/>
  <line x1="200" y1="200" x2="200" y2="400" stroke="rgb(255, 0, 0)" stroke-width="2"/>
  <line x1="200" y1="200" x2="200" y2="0" stroke="rgb(255, 0, 0)" stroke-width="2"/>
  <line x1="200" y1="200" x2="200" y2="0" stroke="rgb(255, 0, 0)" stroke-width="2"/>
  <line x1="210" y1="200" x2="200" y2="390" stroke="rgb(255, 0, 0)" stroke-width="2"/>
  <line x1="190" y1="200" x2="200" y2="390" stroke="rgb(255, 0, 0)" stroke-width="2"/>
  <line x1="210" y1="200" x2="200" y2="10" stroke="rgb(255, 0, 0)" stroke-width="2"/>
  <line x1="190" y1="200" x2="200" y2="10" stroke="rgb(255, 0, 0)" stroke-width="2"/>
  <line x1="220" y1="200" x2="200" y2="380" stroke="rgb(255, 0, 0)" stroke-width="2"/>
  <line x1="180" y1="200" x2="200" y2="380" stroke="rgb(255, 0, 0)" stroke-width="2"/>
  <line x1="220" y1="200" x2="200" y2="20" stroke="rgb(255, 0, 0)" stroke-width="2"/>
  <line x1="180" y1="200" x2="200" y2="20" stroke="rgb(255, 0, 0)" stroke-width="2"/>
  <line x1="230" y1="200" x2="200" y2="370" stroke="rgb(255, 0, 0)" stroke-width="2"/>
  <line x1="170" y1="200" x2="200" y2="370" stroke="rgb(255, 0, 0)" stroke-width="2"/>
  <line x1="230" y1="200" x2="200" y2="30" stroke="rgb(255, 0, 0)" stroke-width="2"/>
  <line x1="170" y1="200" x2="200" y2="30" stroke="rgb(255, 0, 0)" stroke-width="2"/>
  <line x1="240" y1="200" x2="200" y2="360" stroke="rgb(255, 0, 0)" stroke-width="2"/>
  <line x1="160" y1="200" x2="200" y2="360" stroke="rgb(255, 0, 0)" stroke-width="2"/>
  <line x1="240" y1="200" x2="200" y2="40" stroke="rgb(255, 0, 0)" stroke-width="2"/>
  <line x1="160" y1="200" x2="200" y2="40" stroke="rgb(255, 0, 0)" stroke-width="2"/>
  <line x1="250" y1="200" x2="200" y2="350" stroke="rgb(255, 0, 0)" stroke-width="2"/>
  <line x1="150" y1="200" x2="200" y2="350" stroke="rgb(255, 0, 0)" stroke-width="2"/>
  <line x1="250" y1="200" x2="200" y2="50" stroke="rgb(255, 0, 0)" stroke-width="2"/>
  <line x1="150" y1="200" x2="200" y2="50" stroke="rgb(255, 0, 0)" stroke-width="2"/>
  <line x1="260" y1="200" x2="200" y2="340" stroke="rgb(255, 0, 0)" stroke-width="2"/>
  <line x1="140" y1="200" x2="200" y2="340" stroke="rgb(255, 0, 0)" stroke-width="2"/>
  <line x1="260" y1="200" x2="200" y2="60" stroke="rgb(255, 0, 0)" stroke-width="2"/>
  <line x1="140" y1="200" x2="200" y2="60" stroke="rgb(255, 0, 0)" stroke-width="2"/>
  <line x1="270" y1="200" x2="200" y2="330" stroke="rgb(255, 0, 0)" stroke-width="2"/>
  <line x1="130" y1="200" x2="200" y2="330" stroke="rgb(255, 0, 0)" stroke-width="2"/>
  <line x1="270" y1="200" x2="200" y2="70" stroke="rgb(255, 0, 0)" stroke-width="2"/>
  <line x1="130" y1="200" x2="200" y2="70" stroke="rgb(255, 0, 0)" stroke-width="2"/>
  <line x1="280" y1="200" x2="200" y2="320" stroke="rgb(255, 0, 0)" stroke-width="2"/>
  <line x1="120" y1="200" x2="200" y2="320" stroke="rgb(255, 0, 0)" stroke-width="2"/>
  <line x1="280" y1="200" x2="200" y2="80" stroke="rgb(255, 0, 0)" stroke-width="2"/>
  <line x1="120" y1="200" x2="200" y2="80" stroke="rgb(255, 0, 0)" stroke-width="2"/>
  <line x1="290" y1="200" x2="200" y2="310" stroke="rgb(255, 0, 0)" stroke-width="2"/>
  <line x1="110" y1="200" x2="200" y2="310" stroke="rgb(255, 0, 0)" stroke-width="2"/>
  <line x1="290" y1="200" x2="200" y2="90" stroke="rgb(255, 0, 0)" stroke-width="2"/>
  <line x1="110" y1="200" x2="200" y2="90" stroke="rgb(255, 0, 0)" stroke-width="2"/>
  <line x1="300" y1="200" x2="200" y2="300" stroke="rgb(255, 0, 0)" stroke-width="2"/>
  <line x1="100" y1="200" x2="200" y2="300" stroke="rgb(255, 0, 0)" stroke-width="2"/>
  <line x1="300" y1="200" x2="200" y2="100" stroke="rgb(255, 0, 0)" stroke-width="2"/>
  <line x1="100" y1="200" x2="200" y2="100" stroke="rgb(255, 0, 0)" stroke-width="2"/>
  <line x1="310" y1="200" x2="200" y2="290" stroke="rgb(255, 0, 0)" stroke-width="2"/>
  <line x1="90" y1="200" x2="200" y2="290" stroke="rgb(255, 0, 0)" stroke-width="2"/>
  <line x1="310" y1="200" x2="200" y2="110" stroke="rgb(255, 0, 0)" stroke-width="2"/>
  <line x1="90" y1="200" x2="200" y2="110" stroke="rgb(255, 0, 0)" stroke-width="2"/>
  <line x1="320" y1="200" x2="200" y2="280" stroke="rgb(255, 0, 0)" stroke-width="2"/>
  <line x1="80" y1="200" x2="200" y2="280" stroke="rgb(255, 0, 0)" stroke-width="2"/>
  <line x1="320" y1="200" x2="200" y2="120" stroke="rgb(255, 0, 0)" stroke-width="2"/>
  <line x1="80" y1="200" x2="200" y2="120" stroke="rgb(255, 0, 0)" stroke-width="2"/>
  <line x1="330" y1="200" x2="200" y2="270" stroke="rgb(255, 0, 0)" stroke-width="2"/>
  <line x1="70" y1="200" x2="200" y2="270" stroke="rgb(255, 0, 0)" stroke-width="2"/>
  <line x1="330" y1="200" x2="200" y2="130" stroke="rgb(255, 0, 0)" stroke-width="2"/>
  <line x1="70" y1="200" x2="200" y2="130" stroke="rgb(255, 0, 0)" stroke-width="2"/>
  <line x1="340" y1="200" x2="200" y2="260" stroke="rgb(255, 0, 0)" stroke-width="2"/>
  <line x1="60" y1="200" x2="200" y2="260" stroke="rgb(255, 0, 0)" stroke-width="2"/>
  <line x1="340" y1="200" x2="200" y2="140" stroke="rgb(255, 0, 0)" stroke-width="2"/>
  <line x1="60" y1="200" x2="200" y2="140" stroke="rgb(255, 0, 0)" stroke-width="2"/>
  <line x1="350" y1="200" x2="200" y2="250" stroke="rgb(255, 0, 0)" stroke-width="2"/>
  <line x1="50" y1="200" x2="200" y2="250" stroke="rgb(255, 0, 0)" stroke-width="2"/>
  <line x1="350" y1="200" x2="200" y2="150" stroke="rgb(255, 0, 0)" stroke-width="2"/>
  <line x1="50" y1="200" x2="200" y2="150" stroke="rgb(255, 0, 0)" stroke-width="2"/>
  <line x1="360" y1="200" x2="200" y2="240" stroke="rgb(255, 0, 0)" stroke-width="2"/>
  <line x1="40" y1="200" x2="200" y2="240" stroke="rgb(255, 0, 0)" stroke-width="2"/>
  <line x1="360" y1="200" x2="200" y2="160" stroke="rgb(255, 0, 0)" stroke-width="2"/>
  <line x1="40" y1="200" x2="200" y2="160" stroke="rgb(255, 0, 0)" stroke-width="2"/>
  <line x1="370" y1="200" x2="200" y2="230" stroke="rgb(255, 0, 0)" stroke-width="2"/>
  <line x1="30" y1="200" x2="200" y2="230" stroke="rgb(255, 0, 0)" stroke-width="2"/>
  <line x1="370" y1="200" x2="200" y2="170" stroke="rgb(255, 0, 0)" stroke-width="2"/>
  <line x1="30" y1="200" x2="200" y2="170" stroke="rgb(255, 0, 0)" stroke-width="2"/>
  <line x1="380" y1="200" x2="200" y2="220" stroke="rgb(255, 0, 0)" stroke-width="2"/>
  <line x1="20" y1="200" x2="200" y2="220" stroke="rgb(255, 0, 0)" stroke-width="2"/>
  <line x1="380" y1="200" x2="200" y2="180" stroke="rgb(255, 0, 0)" stroke-width="2"/>
  <line x1="20" y1="200" x2="200" y2="180" stroke="rgb(255, 0, 0)" stroke-width="2"/>
  <line x1="390" y1="200" x2="200" y2="210" stroke="rgb(255, 0, 0)" stroke-width="2"/>
  <line x1="10" y1="200" x2="200" y2="210" stroke="rgb(255, 0, 0)" stroke-width="2"/>
  <line x1="390" y1="200" x2="200" y2="190" stroke="rgb(255, 0, 0)" stroke-width="2"/>
  <line x1="10" y1="200" x2="200" y2="190" stroke="rgb(255, 0, 0)" stroke-width="2"/>
  <line x1="400" y1="200" x2="200" y2="200" stroke="rgb(255, 0, 0)" stroke-width="2"/>
  <line x1="0" y1="200" x2="200" y2="200" stroke="rgb(255, 0, 0)" stroke-width="2"/>
  <line x1="400" y1="200" x2="200" y2="200" stroke="rgb(255, 0, 0)" stroke-width="2"/>
  <line x1="0" y1="200" x2="200" y2="200" stroke="rgb(255, 0, 0)" stroke-width="2"/>
</svg>
