<svg version="1.1"
    baseProfile="full"
    width="400" height="400"
    xmlns="http://www.w3.org/2000/svg">

  <rect width="100%" height="100%" fill="white"/>
  <line x1="0" y1="0" x2="399" y2="0" stroke="rgb(0, 0, 0)" stroke-width="2"/>
  <line x1="0" y1="399" x2="399" y2="399" stroke="rgb(0, 0, 0)" stroke-width="2"/>
  <line x1="0" y1="0" x2="0" y2="399" stroke="rgb(0, 0, 0)" stroke-width="2"/>
  <line x1="399" y1="0" x2="399" y2="399" stroke="rgb(0, 0, 0)" stroke-width="2"/>
  <line x1="64" y1="44" x2="34" y2="61" stroke="rgb(255, 0, 0)" stroke-width="2"/>
  <line x1="34" y1="61" x2="33" y2="26" stroke="rgb(255, 0, 0)" stroke-width="2"/>
  <line x1="33" y1="26" x2="64" y2="43" stroke="rgb(255, 0, 0)" stroke-width="2"/>
  <line x1="108" y1="44" x2="88" y2="64" stroke="rgb(255, 0, 0)" stroke-width="2"/>
  <line x1="88" y1="64" x2="68" y2="44" stroke="rgb(255, 0, 0)" stroke-width="2"/>
  <line x1="68" y1="44" x2="88" y2="24" stroke="rgb(255, 0, 0)" stroke-width="2"/>
  <line x1="88" y1="24" x2="108" y2="43" stroke="rgb(255, 0, 0)" stroke-width="2"/>
  <line x1="153" y1="44" x2="139" y2="63" stroke="rgb(255, 0, 0)" stroke-width="2"/>
  <line x1="139" y1="63" x2="116" y2="55" stroke="rgb(255, 0, 0)" stroke-width="2"/>
  <line x1="116" y1="55" x2="116" y2="32" stroke="rgb(255, 0, 0)" stroke-width="2"/>
  <line x1="116" y1="32" x2="139" y2="24" stroke="rgb(255, 0, 0)" stroke-width="2"/>
  <line x1="139" y1="24" x2="153" y2="43" stroke="rgb(255, 0, 0)" stroke-width="2"/>
  <line x1="197" y1="44" x2="187" y2="61" stroke="rgb(255, 0, 0)" stroke-width="2"/>
  <line x1="187" y1="61" x2="167" y2="61" stroke="rgb(255, 0, 0)" stroke-width="2"/>
  <line x1="167" y1="61" x2="157" y2="44" stroke="rgb(255, 0, 0)" stroke-width="2"/>
  <line x1="157" y1="44" x2="167" y2="26" stroke="rgb(255, 0, 0)" stroke-width="2"/>
  <line x1="167" y1="26" x2="187" y2="26" stroke="rgb(255, 0, 0)" stroke-width="2"/>
  <line x1="187" y1="26" x2="197" y2="43" stroke="rgb(255, 0, 0)" stroke-width="2"/>
  <line x1="242" y1="44" x2="234" y2="59" stroke="rgb(255, 0, 0)" stroke-width="2"/>
  <line x1="234" y1="59" x2="217" y2="63" stroke="rgb(255, 0, 0)" stroke-width="2"/>
  <line x1="217" y1="63" x2="203" y2="52" stroke="rgb(255, 0, 0)" stroke-width="2"/>
  <line x1="203" y1="52" x2="203" y2="35" stroke="rgb(255, 0, 0)" stroke-width="2"/>
  <line x1="203" y1="35" x2="217" y2="24" stroke="rgb(255, 0, 0)" stroke-width="2"/>
  <line x1="217" y1="24" x2="234" y2="28" stroke="rgb(255, 0, 0)" stroke-width="2"/>
  <line x1="234" y1="28" x2="242" y2="43" stroke="rgb(255, 0, 0)" stroke-width="2"/>
  <line x1="286" y1="44" x2="280" y2="58" stroke="rgb(255, 0, 0)" stroke-width="2"/>
  <line x1="280" y1="58" x2="266" y2="64" stroke="rgb(255, 0, 0)" stroke-width="2"/>
  <line x1="266" y1="64" x2="251" y2="58" stroke="rgb(255, 0, 0)" stroke-width="2"/>
  <line x1="251" y1="58" x2="246" y2="44" stroke="rgb(255, 0, 0)" stroke-width="2"/>
  <line x1="246" y1="44" x2="251" y2="29" stroke="rgb(255, 0, 0)" stroke-width="2"/>
  <line x1="251" y1="29" x2="266" y2="24" stroke="rgb(255, 0, 0)" stroke-width="2"/>
  <line x1="266" y1="24" x2="280" y2="29" stroke="rgb(255, 0, 0)" stroke-width="2"/>
  <line x1="280" y1="29" x2="286" y2="43" stroke="rgb(255, 0, 0)" stroke-width="2"/>
  <line x1="331" y1="44" x2="326" y2="56" stroke="rgb(255, 0, 0)" stroke-width="2"/>
  <line x1="326" y1="56" x2="314" y2="63" stroke="rgb(255, 0, 0)" stroke-width="2"/>
  <line x1="314" y1="63" x2="301" y2="61" stroke="rgb(255, 0, 0)" stroke-width="2"/>
  <line x1="301" y1="61" x2="292" y2="50" stroke="rgb(255, 0, 0)" stroke-width="2"/>
  <line x1="292" y1="50" x2="292" y2="37" stroke="rgb(255, 0, 0)" stroke-width="2"/>
  <line x1="292" y1="37" x2="301" y2="26" stroke="rgb(255, 0, 0)" stroke-width="2"/>
  <line x1="301" y1="26" x2="314" y2="24" stroke="rgb(255, 0, 0)" stroke-width="2"/>
  <line x1="314" y1="24" x2="326" y2="31" stroke="rgb(255, 0, 0)" stroke-width="2"/>
  <line x1="326" y1="31" x2="331" y2="43" stroke="rgb(255, 0, 0)" stroke-width="2"/>
  <line x1="375" y1="44" x2="371" y2="55" stroke="rgb(255, 0, 0)" stroke-width="2"/>
  <line x1="371" y1="55" x2="361" y2="63" stroke="rgb(255, 0, 0)" stroke-width="2"/>
  <line x1="361" y1="63" x2="348" y2="63" stroke="rgb(255, 0, 0)" stroke-width="2"/>
  <line x1="348" y1="63" x2="338" y2="55" stroke="rgb(255, 0, 0)" stroke-width="2"/>
  <line x1="338" y1="55" x2="335" y2="44" stroke="rgb(255, 0, 0)" stroke-width="2"/>
  <line x1="335" y1="44" x2="338" y2="32" stroke="rgb(255, 0, 0)" stroke-width="2"/>
  <line x1="338" y1="32" x2="348" y2="24" stroke="rgb(255, 0, 0)" stroke-width="2"/>
  <line x1="348" y1="24" x2="361" y2="24" stroke="rgb(255, 0, 0)" stroke-width="2"/>
  <line x1="361" y1="24" x2="371" y2="32" stroke="rgb(255, 0, 0)" stroke-width="2"/>
  <line x1="371" y1="32" x2="375" y2="43" stroke="rgb(255, 0, 0)" stroke-width="2"/>
  <line x1="64" y1="88" x2="34" y2="105" stroke="rgb(218, 36, 0)" stroke-width="2"/>
  <line x1="34" y1="105" x2="33" y2="70" stroke="rgb(218, 36, 0)" stroke-width="2"/>
  <line x1="33" y1="70" x2="64" y2="88" stroke="rgb(218, 36, 0)" stroke-width="2"/>
  <line x1="108" y1="88" x2="88" y2="108" stroke="rgb(218, 36, 0)" stroke-width="2"/>
  <line x1="88" y1="108" x2="68" y2="88" stroke="rgb(218, 36, 0)" stroke-width="2"/>
  <line x1="68" y1="88" x2="88" y2="68" stroke="rgb(218, 36, 0)" stroke-width="2"/>
  <line x1="88" y1="68" x2="108" y2="88" stroke="rgb(218, 36, 0)" stroke-width="2"/>
  <line x1="153" y1="88" x2="139" y2="107" stroke="rgb(218, 36, 0)" stroke-width="2"/>
  <line x1="139" y1="107" x2="116" y2="99" stroke="rgb(218, 36, 0)" stroke-width="2"/>
  <line x1="116" y1="99" x2="116" y2="76" stroke="rgb(218, 36, 0)" stroke-width="2"/>
  <line x1="116" y1="76" x2="139" y2="68" stroke="rgb(218, 36, 0)" stroke-width="2"/>
  <line x1="139" y1="68" x2="153" y2="88" stroke="rgb(218, 36, 0)" stroke-width="2"/>
  <line x1="197" y1="88" x2="187" y2="105" stroke="rgb(218, 36, 0)" stroke-width="2"/>
  <line x1="187" y1="105" x2="167" y2="105" stroke="rgb(218, 36, 0)" stroke-width="2"/>
  <line x1="167" y1="105" x2="157" y2="88" stroke="rgb(218, 36, 0)" stroke-width="2"/>
  <line x1="157" y1="88" x2="167" y2="70" stroke="rgb(218, 36, 0)" stroke-width="2"/>
  <line x1="167" y1="70" x2="187" y2="70" stroke="rgb(218, 36, 0)" stroke-width="2"/>
  <line x1="187" y1="70" x2="197" y2="88" stroke="rgb(218, 36, 0)" stroke-width="2"/>
  <line x1="242" y1="88" x2="234" y2="103" stroke="rgb(218, 36, 0)" stroke-width="2"/>
  <line x1="234" y1="103" x2="217" y2="107" stroke="rgb(218, 36, 0)" stroke-width="2"/>
  <line x1="217" y1="107" x2="203" y2="96" stroke="rgb(218, 36, 0)" stroke-width="2"/>
  <line x1="203" y1="96" x2="203" y2="79" stroke="rgb(218, 36, 0)" stroke-width="2"/>
  <line x1="203" y1="79" x2="217" y2="68" stroke="rgb(218, 36, 0)" stroke-width="2"/>
  <line x1="217" y1="68" x2="234" y2="72" stroke="rgb(218, 36, 0)" stroke-width="2"/>
  <line x1="234" y1="72" x2="242" y2="88" stroke="rgb(218, 36, 0)" stroke-width="2"/>
  <line x1="286" y1="88" x2="280" y2="102" stroke="rgb(218, 36, 0)" stroke-width="2"/>
  <line x1="280" y1="102" x2="266" y2="108" stroke="rgb(218, 36, 0)" stroke-width="2"/>
  <line x1="266" y1="108" x2="251" y2="102" stroke="rgb(218, 36, 0)" stroke-width="2"/>
  <line x1="251" y1="102" x2="246" y2="88" stroke="rgb(218, 36, 0)" stroke-width="2"/>
  <line x1="246" y1="88" x2="251" y2="73" stroke="rgb(218, 36, 0)" stroke-width="2"/>
  <line x1="251" y1="73" x2="266" y2="68" stroke="rgb(218, 36, 0)" stroke-width="2"/>
  <line x1="266" y1="68" x2="280" y2="73" stroke="rgb(218, 36, 0)" stroke-width="2"/>
  <line x1="280" y1="73" x2="286" y2="88" stroke="rgb(218, 36, 0)" stroke-width="2"/>
  <line x1="331" y1="88" x2="326" y2="100" stroke="rgb(218, 36, 0)" stroke-width="2"/>
  <line x1="326" y1="100" x2="314" y2="107" stroke="rgb(218, 36, 0)" stroke-width="2"/>
  <line x1="314" y1="107" x2="301" y2="105" stroke="rgb(218, 36, 0)" stroke-width="2"/>
  <line x1="301" y1="105" x2="292" y2="94" stroke="rgb(218, 36, 0)" stroke-width="2"/>
  <line x1="292" y1="94" x2="292" y2="81" stroke="rgb(218, 36, 0)" stroke-width="2"/>
  <line x1="292" y1="81" x2="301" y2="70" stroke="rgb(218, 36, 0)" stroke-width="2"/>
  <line x1="301" y1="70" x2="314" y2="68" stroke="rgb(218, 36, 0)" stroke-width="2"/>
  <line x1="314" y1="68" x2="326" y2="75" stroke="rgb(218, 36, 0)" stroke-width="2"/>
  <line x1="326" y1="75" x2="331" y2="88" stroke="rgb(218, 36, 0)" stroke-width="2"/>
  <line x1="375" y1="88" x2="371" y2="99" stroke="rgb(218, 36, 0)" stroke-width="2"/>
  <line x1="371" y1="99" x2="361" y2="107" stroke="rgb(218, 36, 0)" stroke-width="2"/>
  <line x1="361" y1="107" x2="348" y2="107" stroke="rgb(218, 36, 0)" stroke-width="2"/>
  <line x1="348" y1="107" x2="338" y2="99" stroke="rgb(218, 36, 0)" stroke-width="2"/>
  <line x1="338" y1="99" x2="335" y2="88" stroke="rgb(218, 36, 0)" stroke-width="2"/>
  <line x1="335" y1="88" x2="338" y2="76" stroke="rgb(218, 36, 0)" stroke-width="2"/>
  <line x1="338" y1="76" x2="348" y2="68" stroke="rgb(218, 36, 0)" stroke-width="2"/>
  <line x1="348" y1="68" x2="361" y2="68" stroke="rgb(218, 36, 0)" stroke-width="2"/>
  <line x1="361" y1="68" x2="371" y2="76" stroke="rgb(218, 36, 0)" stroke-width="2"/>
  <line x1="371" y1="76" x2="375" y2="88" stroke="rgb(218, 36, 0)" stroke-width="2"/>
  <line x1="64" y1="133" x2="34" y2="150" stroke="rgb(182, 72, 0)" stroke-width="2"/>
  <line x1="34" y1="150" x2="33" y2="115" stroke="rgb(182, 72, 0)" stroke-width="2"/>
  <line x1="33" y1="115" x2="64" y2="133" stroke="rgb(182, 72, 0)" stroke-width="2"/>
  <line x1="108" y1="133" x2="88" y2="153" stroke="rgb(182, 72, 0)" stroke-width="2"/>
  <line x1="88" y1="153" x2="68" y2="133" stroke="rgb(182, 72, 0)" stroke-width="2"/>
  <line x1="68" y1="133" x2="88" y2="113" stroke="rgb(182, 72, 0)" stroke-width="2"/>
  <line x1="88" y1="113" x2="108" y2="133" stroke="rgb(182, 72, 0)" stroke-width="2"/>
  <line x1="153" y1="133" x2="139" y2="152" stroke="rgb(182, 72, 0)" stroke-width="2"/>
  <line x1="139" y1="152" x2="116" y2="144" stroke="rgb(182, 72, 0)" stroke-width="2"/>
  <line x1="116" y1="144" x2="116" y2="121" stroke="rgb(182, 72, 0)" stroke-width="2"/>
  <line x1="116" y1="121" x2="139" y2="113" stroke="rgb(182, 72, 0)" stroke-width="2"/>
  <line x1="139" y1="113" x2="153" y2="133" stroke="rgb(182, 72, 0)" stroke-width="2"/>
  <line x1="197" y1="133" x2="187" y2="150" stroke="rgb(182, 72, 0)" stroke-width="2"/>
  <line x1="187" y1="150" x2="167" y2="150" stroke="rgb(182, 72, 0)" stroke-width="2"/>
  <line x1="167" y1="150" x2="157" y2="133" stroke="rgb(182, 72, 0)" stroke-width="2"/>
  <line x1="157" y1="133" x2="167" y2="115" stroke="rgb(182, 72, 0)" stroke-width="2"/>
  <line x1="167" y1="115" x2="187" y2="115" stroke="rgb(182, 72, 0)" stroke-width="2"/>
  <line x1="187" y1="115" x2="197" y2="133" stroke="rgb(182, 72, 0)" stroke-width="2"/>
  <line x1="242" y1="133" x2="234" y2="148" stroke="rgb(182, 72, 0)" stroke-width="2"/>
  <line x1="234" y1="148" x2="217" y2="152" stroke="rgb(182, 72, 0)" stroke-width="2"/>
  <line x1="217" y1="152" x2="203" y2="141" stroke="rgb(182, 72, 0)" stroke-width="2"/>
  <line x1="203" y1="141" x2="203" y2="124" stroke="rgb(182, 72, 0)" stroke-width="2"/>
  <line x1="203" y1="124" x2="217" y2="113" stroke="rgb(182, 72, 0)" stroke-width="2"/>
  <line x1="217" y1="113" x2="234" y2="117" stroke="rgb(182, 72, 0)" stroke-width="2"/>
  <line x1="234" y1="117" x2="242" y2="133" stroke="rgb(182, 72, 0)" stroke-width="2"/>
  <line x1="286" y1="133" x2="280" y2="147" stroke="rgb(182, 72, 0)" stroke-width="2"/>
  <line x1="280" y1="147" x2="266" y2="153" stroke="rgb(182, 72, 0)" stroke-width="2"/>
  <line x1="266" y1="153" x2="251" y2="147" stroke="rgb(182, 72, 0)" stroke-width="2"/>
  <line x1="251" y1="147" x2="246" y2="133" stroke="rgb(182, 72, 0)" stroke-width="2"/>
  <line x1="246" y1="133" x2="251" y2="118" stroke="rgb(182, 72, 0)" stroke-width="2"/>
  <line x1="251" y1="118" x2="266" y2="113" stroke="rgb(182, 72, 0)" stroke-width="2"/>
  <line x1="266" y1="113" x2="280" y2="118" stroke="rgb(182, 72, 0)" stroke-width="2"/>
  <line x1="280" y1="118" x2="286" y2="133" stroke="rgb(182, 72, 0)" stroke-width="2"/>
  <line x1="331" y1="133" x2="326" y2="145" stroke="rgb(182, 72, 0)" stroke-width="2"/>
  <line x1="326" y1="145" x2="314" y2="152" stroke="rgb(182, 72, 0)" stroke-width="2"/>
  <line x1="314" y1="152" x2="301" y2="150" stroke="rgb(182, 72, 0)" stroke-width="2"/>
  <line x1="301" y1="150" x2="292" y2="139" stroke="rgb(182, 72, 0)" stroke-width="2"/>
  <line x1="292" y1="139" x2="292" y2="126" stroke="rgb(182, 72, 0)" stroke-width="2"/>
  <line x1="292" y1="126" x2="301" y2="115" stroke="rgb(182, 72, 0)" stroke-width="2"/>
  <line x1="301" y1="115" x2="314" y2="113" stroke="rgb(182, 72, 0)" stroke-width="2"/>
  <line x1="314" y1="113" x2="326" y2="120" stroke="rgb(182, 72, 0)" stroke-width="2"/>
  <line x1="326" y1="120" x2="331" y2="133" stroke="rgb(182, 72, 0)" stroke-width="2"/>
  <line x1="375" y1="133" x2="371" y2="144" stroke="rgb(182, 72, 0)" stroke-width="2"/>
  <line x1="371" y1="144" x2="361" y2="152" stroke="rgb(182, 72, 0)" stroke-width="2"/>
  <line x1="361" y1="152" x2="348" y2="152" stroke="rgb(182, 72, 0)" stroke-width="2"/>
  <line x1="348" y1="152" x2="338" y2="144" stroke="rgb(182, 72, 0)" stroke-width="2"/>
  <line x1="338" y1="144" x2="335" y2="133" stroke="rgb(182, 72, 0)" stroke-width="2"/>
  <line x1="335" y1="133" x2="338" y2="121" stroke="rgb(182, 72, 0)" stroke-width="2"/>
  <line x1="338" y1="121" x2="348" y2="113" stroke="rgb(182, 72, 0)" stroke-width="2"/>
  <line x1="348" y1="113" x2="361" y2="113" stroke="rgb(182, 72, 0)" stroke-width="2"/>
  <line x1="361" y1="113" x2="371" y2="121" stroke="rgb(182, 72, 0)" stroke-width="2"/>
  <line x1="371" y1="121" x2="375" y2="133" stroke="rgb(182, 72, 0)" stroke-width="2"/>
  <line x1="64" y1="177" x2="34" y2="194" stroke="rgb(145, 109, 0)" stroke-width="2"/>
  <line x1="34" y1="194" x2="33" y2="159" stroke="rgb(145, 109, 0)" stroke-width="2"/>
  <line x1="33" y1="159" x2="64" y2="177" stroke="rgb(145, 109, 0)" stroke-width="2"/>
  <line x1="108" y1="177" x2="88" y2="197" stroke="rgb(145, 109, 0)" stroke-width="2"/>
  <line x1="88" y1="197" x2="68" y2="177" stroke="rgb(145, 109, 0)" stroke-width="2"/>
  <line x1="68" y1="177" x2="88" y2="157" stroke="rgb(145, 109, 0)" stroke-width="2"/>
  <line x1="88" y1="157" x2="108" y2="177" stroke="rgb(145, 109, 0)" stroke-width="2"/>
  <line x1="153" y1="177" x2="139" y2="196" stroke="rgb(145, 109, 0)" stroke-width="2"/>
  <line x1="139" y1="196" x2="116" y2="188" stroke="rgb(145, 109, 0)" stroke-width="2"/>
  <line x1="116" y1="188" x2="116" y2="165" stroke="rgb(145, 109, 0)" stroke-width="2"/>
  <line x1="116" y1="165" x2="139" y2="157" stroke="rgb(145, 109, 0)" stroke-width="2"/>
  <line x1="139" y1="157" x2="153" y2="177" stroke="rgb(145, 109, 0)" stroke-width="2"/>
  <line x1="197" y1="177" x2="187" y2="194" stroke="rgb(145, 109, 0)" stroke-width="2"/>
  <line x1="187" y1="194" x2="167" y2="194" stroke="rgb(145, 109, 0)" stroke-width="2"/>
  <line x1="167" y1="194" x2="157" y2="177" stroke="rgb(145, 109, 0)" stroke-width="2"/>
  <line x1="157" y1="177" x2="167" y2="159" stroke="rgb(145, 109, 0)" stroke-width="2"/>
  <line x1="167" y1="159" x2="187" y2="159" stroke="rgb(145, 109, 0)" stroke-width="2"/>
  <line x1="187" y1="159" x2="197" y2="177" stroke="rgb(145, 109, 0)" stroke-width="2"/>
  <line x1="242" y1="177" x2="234" y2="192" stroke="rgb(145, 109, 0)" stroke-width="2"/>
  <line x1="234" y1="192" x2="217" y2="196" stroke="rgb(145, 109, 0)" stroke-width="2"/>
  <line x1="217" y1="196" x2="203" y2="185" stroke="rgb(145, 109, 0)" stroke-width="2"/>
  <line x1="203" y1="185" x2="203" y2="168" stroke="rgb(145, 109, 0)" stroke-width="2"/>
  <line x1="203" y1="168" x2="217" y2="157" stroke="rgb(145, 109, 0)" stroke-width="2"/>
  <line x1="217" y1="157" x2="234" y2="161" stroke="rgb(145, 109, 0)" stroke-width="2"/>
  <line x1="234" y1="161" x2="242" y2="177" stroke="rgb(145, 109, 0)" stroke-width="2"/>
  <line x1="286" y1="177" x2="280" y2="191" stroke="rgb(145, 109, 0)" stroke-width="2"/>
  <line x1="280" y1="191" x2="266" y2="197" stroke="rgb(145, 109, 0)" stroke-width="2"/>
  <line x1="266" y1="197" x2="251" y2="191" stroke="rgb(145, 109, 0)" stroke-width="2"/>
  <line x1="251" y1="191" x2="246" y2="177" stroke="rgb(145, 109, 0)" stroke-width="2"/>
  <line x1="246" y1="177" x2="251" y2="162" stroke="rgb(145, 109, 0)" stroke-width="2"/>
  <line x1="251" y1="162" x2="266" y2="157" stroke="rgb(145, 109, 0)" stroke-width="2"/>
  <line x1="266" y1="157" x2="280" y2="162" stroke="rgb(145, 109, 0)" stroke-width="2"/>
  <line x1="280" y1="162" x2="286" y2="177" stroke="rgb(145, 109, 0)" stroke-width="2"/>
  <line x1="331" y1="177" x2="326" y2="189" stroke="rgb(145, 109, 0)" stroke-width="2"/>
  <line x1="326" y1="189" x2="314" y2="196" stroke="rgb(145, 109, 0)" stroke-width="2"/>
  <line x1="314" y1="196" x2="301" y2="194" stroke="rgb(145, 109, 0)" stroke-width="2"/>
  <line x1="301" y1="194" x2="292" y2="183" stroke="rgb(145, 109, 0)" stroke-width="2"/>
  <line x1="292" y1="183" x2="292" y2="170" stroke="rgb(145, 109, 0)" stroke-width="2"/>
  <line x1="292" y1="170" x2="301" y2="159" stroke="rgb(145, 109, 0)" stroke-width="2"/>
  <line x1="301" y1="159" x2="314" y2="157" stroke="rgb(145, 109, 0)" stroke-width="2"/>
  <line x1="314" y1="157" x2="326" y2="164" stroke="rgb(145, 109, 0)" stroke-width="2"/>
  <line x1="326" y1="164" x2="331" y2="177" stroke="rgb(145, 109, 0)" stroke-width="2"/>
  <line x1="375" y1="177" x2="371" y2="188" stroke="rgb(145, 109, 0)" stroke-width="2"/>
  <line x1="371" y1="188" x2="361" y2="196" stroke="rgb(145, 109, 0)" stroke-width="2"/>
  <line x1="361" y1="196" x2="348" y2="196" stroke="rgb(145, 109, 0)" stroke-width="2"/>
  <line x1="348" y1="196" x2="338" y2="188" stroke="rgb(145, 109, 0)" stroke-width="2"/>
  <line x1="338" y1="188" x2="335" y2="177" stroke="rgb(145, 109, 0)" stroke-width="2"/>
  <line x1="335" y1="177" x2="338" y2="165" stroke="rgb(145, 109, 0)" stroke-width="2"/>
  <line x1="338" y1="165" x2="348" y2="157" stroke="rgb(145, 109, 0)" stroke-width="2"/>
  <line x1="348" y1="157" x2="361" y2="157" stroke="rgb(145, 109, 0)" stroke-width="2"/>
  <line x1="361" y1="157" x2="371" y2="165" stroke="rgb(145, 109, 0)" stroke-width="2"/>
  <line x1="371" y1="165" x2="375" y2="177" stroke="rgb(145, 109, 0)" stroke-width="2"/>
  <line x1="64" y1="222" x2="34" y2="239" stroke="rgb(109, 145, 0)" stroke-width="2"/>
  <line x1="34" y1="239" x2="33" y2="204" stroke="rgb(109, 145, 0)" stroke-width="2"/>
  <line x1="33" y1="204" x2="64" y2="222" stroke="rgb(109, 145, 0)" stroke-width="2"/>
  <line x1="108" y1="222" x2="88" y2="242" stroke="rgb(109, 145, 0)" stroke-width="2"/>
  <line x1="88" y1="242" x2="68" y2="222" stroke="rgb(109, 145, 0)" stroke-width="2"/>
  <line x1="68" y1="222" x2="88" y2="202" stroke="rgb(109, 145, 0)" stroke-width="2"/>
  <line x1="88" y1="202" x2="108" y2="222" stroke="rgb(109, 145, 0)" stroke-width="2"/>
  <line x1="153" y1="222" x2="139" y2="241" stroke="rgb(109, 145, 0)" stroke-width="2"/>
  <line x1="139" y1="241" x2="116" y2="233" stroke="rgb(109, 145, 0)" stroke-width="2"/>
  <line x1="116" y1="233" x2="116" y2="210" stroke="rgb(109, 145, 0)" stroke-width="2"/>
  <line x1="116" y1="210" x2="139" y2="202" stroke="rgb(109, 145, 0)" stroke-width="2"/>
  <line x1="139" y1="202" x2="153" y2="222" stroke="rgb(109, 145, 0)" stroke-width="2"/>
  <line x1="197" y1="222" x2="187" y2="239" stroke="rgb(109, 145, 0)" stroke-width="2"/>
  <line x1="187" y1="239" x2="167" y2="239" stroke="rgb(109, 145, 0)" stroke-width="2"/>
  <line x1="167" y1="239" x2="157" y2="222" stroke="rgb(109, 145, 0)" stroke-width="2"/>
  <line x1="157" y1="222" x2="167" y2="204" stroke="rgb(109, 145, 0)" stroke-width="2"/>
  <line x1="167" y1="204" x2="187" y2="204" stroke="rgb(109, 145, 0)" stroke-width="2"/>
  <line x1="187" y1="204" x2="197" y2="222" stroke="rgb(109, 145, 0)" stroke-width="2"/>
  <line x1="242" y1="222" x2="234" y2="237" stroke="rgb(109, 145, 0)" stroke-width="2"/>
  <line x1="234" y1="237" x2="217" y2="241" stroke="rgb(109, 145, 0)" stroke-width="2"/>
  <line x1="217" y1="241" x2="203" y2="230" stroke="rgb(109, 145, 0)" stroke-width="2"/>
  <line x1="203" y1="230" x2="203" y2="213" stroke="rgb(109, 145, 0)" stroke-width="2"/>
  <line x1="203" y1="213" x2="217" y2="202" stroke="rgb(109, 145, 0)" stroke-width="2"/>
  <line x1="217" y1="202" x2="234" y2="206" stroke="rgb(109, 145, 0)" stroke-width="2"/>
  <line x1="234" y1="206" x2="242" y2="222" stroke="rgb(109, 145, 0)" stroke-width="2"/>
  <line x1="286" y1="222" x2="280" y2="236" stroke="rgb(109, 145, 0)" stroke-width="2"/>
  <line x1="280" y1="236" x2="266" y2="242" stroke="rgb(109, 145, 0)" stroke-width="2"/>
  <line x1="266" y1="242" x2="251" y2="236" stroke="rgb(109, 145, 0)" stroke-width="2"/>
  <line x1="251" y1="236" x2="246" y2="222" stroke="rgb(109, 145, 0)" stroke-width="2"/>
  <line x1="246" y1="222" x2="251" y2="207" stroke="rgb(109, 145, 0)" stroke-width="2"/>
  <line x1="251" y1="207" x2="266" y2="202" stroke="rgb(109, 145, 0)" stroke-width="2"/>
  <line x1="266" y1="202" x2="280" y2="207" stroke="rgb(109, 145, 0)" stroke-width="2"/>
  <line x1="280" y1="207" x2="286" y2="222" stroke="rgb(109, 145, 0)" stroke-width="2"/>
  <line x1="331" y1="222" x2="326" y2="234" stroke="rgb(109, 145, 0)" stroke-width="2"/>
  <line x1="326" y1="234" x2="314" y2="241" stroke="rgb(109, 145, 0)" stroke-width="2"/>
  <line x1="314" y1="241" x2="301" y2="239" stroke="rgb(109, 145, 0)" stroke-width="2"/>
  <line x1="301" y1="239" x2="292" y2="228" stroke="rgb(109, 145, 0)" stroke-width="2"/>
  <line x1="292" y1="228" x2="292" y2="215" stroke="rgb(109, 145, 0)" stroke-width="2"/>
  <line x1="292" y1="215" x2="301" y2="204" stroke="rgb(109, 145, 0)" stroke-width="2"/>
  <line x1="301" y1="204" x2="314" y2="202" stroke="rgb(109, 145, 0)" stroke-width="2"/>
  <line x1="314" y1="202" x2="326" y2="209" stroke="rgb(109, 145, 0)" stroke-width="2"/>
  <line x1="326" y1="209" x2="331" y2="222" stroke="rgb(109, 145, 0)" stroke-width="2"/>
  <line x1="375" y1="222" x2="371" y2="233" stroke="rgb(109, 145, 0)" stroke-width="2"/>
  <line x1="371" y1="233" x2="361" y2="241" stroke="rgb(109, 145, 0)" stroke-width="2"/>
  <line x1="361" y1="241" x2="348" y2="241" stroke="rgb(109, 145, 0)" stroke-width="2"/>
  <line x1="348" y1="241" x2="338" y2="233" stroke="rgb(109, 145, 0)" stroke-width="2"/>
  <line x1="338" y1="233" x2="335" y2="222" stroke="rgb(109, 145, 0)" stroke-width="2"/>
  <line x1="335" y1="222" x2="338" y2="210" stroke="rgb(109, 145, 0)" stroke-width="2"/>
  <line x1="338" y1="210" x2="348" y2="202" stroke="rgb(109, 145, 0)" stroke-width="2"/>
  <line x1="348" y1="202" x2="361" y2="202" stroke="rgb(109, 145, 0)" stroke-width="2"/>
  <line x1="361" y1="202" x2="371" y2="210" stroke="rgb(109, 145, 0)" stroke-width="2"/>
  <line x1="371" y1="210" x2="375" y2="222" stroke="rgb(109, 145, 0)" stroke-width="2"/>
  <line x1="64" y1="266" x2="34" y2="283" stroke="rgb(72, 182, 0)" stroke-width="2"/>
  <line x1="34" y1="283" x2="33" y2="248" stroke="rgb(72, 182, 0)" stroke-width="2"/>
  <line x1="33" y1="248" x2="64" y2="266" stroke="rgb(72, 182, 0)" stroke-width="2"/>
  <line x1="108" y1="266" x2="88" y2="286" stroke="rgb(72, 182, 0)" stroke-width="2"/>
  <line x1="88" y1="286" x2="68" y2="266" stroke="rgb(72, 182, 0)" stroke-width="2"/>
  <line x1="68" y1="266" x2="88" y2="246" stroke="rgb(72, 182, 0)" stroke-width="2"/>
  <line x1="88" y1="246" x2="108" y2="266" stroke="rgb(72, 182, 0)" stroke-width="2"/>
  <line x1="153" y1="266" x2="139" y2="285" stroke="rgb(72, 182, 0)" stroke-width="2"/>
  <line x1="139" y1="285" x2="116" y2="277" stroke="rgb(72, 182, 0)" stroke-width="2"/>
  <line x1="116" y1="277" x2="116" y2="254" stroke="rgb(72, 182, 0)" stroke-width="2"/>
  <line x1="116" y1="254" x2="139" y2="246" stroke="rgb(72, 182, 0)" stroke-width="2"/>
  <line x1="139" y1="246" x2="153" y2="266" stroke="rgb(72, 182, 0)" stroke-width="2"/>
  <line x1="197" y1="266" x2="187" y2="283" stroke="rgb(72, 182, 0)" stroke-width="2"/>
  <line x1="187" y1="283" x2="167" y2="283" stroke="rgb(72, 182, 0)" stroke-width="2"/>
  <line x1="167" y1="283" x2="157" y2="266" stroke="rgb(72, 182, 0)" stroke-width="2"/>
  <line x1="157" y1="266" x2="167" y2="248" stroke="rgb(72, 182, 0)" stroke-width="2"/>
  <line x1="167" y1="248" x2="187" y2="248" stroke="rgb(72, 182, 0)" stroke-width="2"/>
  <line x1="187" y1="248" x2="197" y2="266" stroke="rgb(72, 182, 0)" stroke-width="2"/>
  <line x1="242" y1="266" x2="234" y2="281" stroke="rgb(72, 182, 0)" stroke-width="2"/>
  <line x1="234" y1="281" x2="217" y2="285" stroke="rgb(72, 182, 0)" stroke-width="2"/>
  <line x1="217" y1="285" x2="203" y2="274" stroke="rgb(72, 182, 0)" stroke-width="2"/>
  <line x1="203" y1="274" x2="203" y2="257" stroke="rgb(72, 182, 0)" stroke-width="2"/>
  <line x1="203" y1="257" x2="217" y2="246" stroke="rgb(72, 182, 0)" stroke-width="2"/>
  <line x1="217" y1="246" x2="234" y2="250" stroke="rgb(72, 182, 0)" stroke-width="2"/>
  <line x1="234" y1="250" x2="242" y2="266" stroke="rgb(72, 182, 0)" stroke-width="2"/>
  <line x1="286" y1="266" x2="280" y2="280" stroke="rgb(72, 182, 0)" stroke-width="2"/>
  <line x1="280" y1="280" x2="266" y2="286" stroke="rgb(72, 182, 0)" stroke-width="2"/>
  <line x1="266" y1="286" x2="251" y2="280" stroke="rgb(72, 182, 0)" stroke-width="2"/>
  <line x1="251" y1="280" x2="246" y2="266" stroke="rgb(72, 182, 0)" stroke-width="2"/>
  <line x1="246" y1="266" x2="251" y2="251" stroke="rgb(72, 182, 0)" stroke-width="2"/>
  <line x1="251" y1="251" x2="266" y2="246" stroke="rgb(72, 182, 0)" stroke-width="2"/>
  <line x1="266" y1="246" x2="280" y2="251" stroke="rgb(72, 182, 0)" stroke-width="2"/>
  <line x1="280" y1="251" x2="286" y2="266" stroke="rgb(72, 182, 0)" stroke-width="2"/>
  <line x1="331" y1="266" x2="326" y2="278" stroke="rgb(72, 182, 0)" stroke-width="2"/>
  <line x1="326" y1="278" x2="314" y2="285" stroke="rgb(72, 182, 0)" stroke-width="2"/>
  <line x1="314" y1="285" x2="301" y2="283" stroke="rgb(72, 182, 0)" stroke-width="2"/>
  <line x1="301" y1="283" x2="292" y2="272" stroke="rgb(72, 182, 0)" stroke-width="2"/>
  <line x1="292" y1="272" x2="292" y2="259" stroke="rgb(72, 182, 0)" stroke-width="2"/>
  <line x1="292" y1="259" x2="301" y2="248" stroke="rgb(72, 182, 0)" stroke-width="2"/>
  <line x1="301" y1="248" x2="314" y2="246" stroke="rgb(72, 182, 0)" stroke-width="2"/>
  <line x1="314" y1="246" x2="326" y2="253" stroke="rgb(72, 182, 0)" stroke-width="2"/>
  <line x1="326" y1="253" x2="331" y2="266" stroke="rgb(72, 182, 0)" stroke-width="2"/>
  <line x1="375" y1="266" x2="371" y2="277" stroke="rgb(72, 182, 0)" stroke-width="2"/>
  <line x1="371" y1="277" x2="361" y2="285" stroke="rgb(72, 182, 0)" stroke-width="2"/>
  <line x1="361" y1="285" x2="348" y2="285" stroke="rgb(72, 182, 0)" stroke-width="2"/>
  <line x1="348" y1="285" x2="338" y2="277" stroke="rgb(72, 182, 0)" stroke-width="2"/>
  <line x1="338" y1="277" x2="335" y2="266" stroke="rgb(72, 182, 0)" stroke-width="2"/>
  <line x1="335" y1="266" x2="338" y2="254" stroke="rgb(72, 182, 0)" stroke-width="2"/>
  <line x1="338" y1="254" x2="348" y2="246" stroke="rgb(72, 182, 0)" stroke-width="2"/>
  <line x1="348" y1="246" x2="361" y2="246" stroke="rgb(72, 182, 0)" stroke-width="2"/>
  <line x1="361" y1="246" x2="371" y2="254" stroke="rgb(72, 182, 0)" stroke-width="2"/>
  <line x1="371" y1="254" x2="375" y2="266" stroke="rgb(72, 182, 0)" stroke-width="2"/>
  <line x1="64" y1="311" x2="34" y2="328" stroke="rgb(36, 218, 0)" stroke-width="2"/>
  <line x1="34" y1="328" x2="33" y2="293" stroke="rgb(36, 218, 0)" stroke-width="2"/>
  <line x1="33" y1="293" x2="64" y2="311" stroke="rgb(36, 218, 0)" stroke-width="2"/>
  <line x1="108" y1="311" x2="88" y2="331" stroke="rgb(36, 218, 0)" stroke-width="2"/>
  <line x1="88" y1="331" x2="68" y2="311" stroke="rgb(36, 218, 0)" stroke-width="2"/>
  <line x1="68" y1="311" x2="88" y2="291" stroke="rgb(36, 218, 0)" stroke-width="2"/>
  <line x1="88" y1="291" x2="108" y2="311" stroke="rgb(36, 218, 0)" stroke-width="2"/>
  <line x1="153" y1="311" x2="139" y2="330" stroke="rgb(36, 218, 0)" stroke-width="2"/>
  <line x1="139" y1="330" x2="116" y2="322" stroke="rgb(36, 218, 0)" stroke-width="2"/>
  <line x1="116" y1="322" x2="116" y2="299" stroke="rgb(36, 218, 0)" stroke-width="2"/>
  <line x1="116" y1="299" x2="139" y2="291" stroke="rgb(36, 218, 0)" stroke-width="2"/>
  <line x1="139" y1="291" x2="153" y2="311" stroke="rgb(36, 218, 0)" stroke-width="2"/>
  <line x1="197" y1="311" x2="187" y2="328" stroke="rgb(36, 218, 0)" stroke-width="2"/>
  <line x1="187" y1="328" x2="167" y2="328" stroke="rgb(36, 218, 0)" stroke-width="2"/>
  <line x1="167" y1="328" x2="157" y2="311" stroke="rgb(36, 218, 0)" stroke-width="2"/>
  <line x1="157" y1="311" x2="167" y2="293" stroke="rgb(36, 218, 0)" stroke-width="2"/>
  <line x1="167" y1="293" x2="187" y2="293" stroke="rgb(36, 218, 0)" stroke-width="2"/>
  <line x1="187" y1="293" x2="197" y2="311" stroke="rgb(36, 218, 0)" stroke-width="2"/>
  <line x1="242" y1="311" x2="234" y2="326" stroke="rgb(36, 218, 0)" stroke-width="2"/>
  <line x1="234" y1="326" x2="217" y2="330" stroke="rgb(36, 218, 0)" stroke-width="2"/>
  <line x1="217" y1="330" x2="203" y2="319" stroke="rgb(36, 218, 0)" stroke-width="2"/>
  <line x1="203" y1="319" x2="203" y2="302" stroke="rgb(36, 218, 0)" stroke-width="2"/>
  <line x1="203" y1="302" x2="217" y2="291" stroke="rgb(36, 218, 0)" stroke-width="2"/>
  <line x1="217" y1="291" x2="234" y2="295" stroke="rgb(36, 218, 0)" stroke-width="2"/>
  <line x1="234" y1="295" x2="242" y2="311" stroke="rgb(36, 218, 0)" stroke-width="2"/>
  <line x1="286" y1="311" x2="280" y2="325" stroke="rgb(36, 218, 0)" stroke-width="2"/>
  <line x1="280" y1="325" x2="266" y2="331" stroke="rgb(36, 218, 0)" stroke-width="2"/>
  <line x1="266" y1="331" x2="251" y2="325" stroke="rgb(36, 218, 0)" stroke-width="2"/>
  <line x1="251" y1="325" x2="246" y2="311" stroke="rgb(36, 218, 0)" stroke-width="2"/>
  <line x1="246" y1="311" x2="251" y2="296" stroke="rgb(36, 218, 0)" stroke-width="2"/>
  <line x1="251" y1="296" x2="266" y2="291" stroke="rgb(36, 218, 0)" stroke-width="2"/>
  <line x1="266" y1="291" x2="280" y2="296" stroke="rgb(36, 218, 0)" stroke-width="2"/>
  <line x1="280" y1="296" x2="286" y2="311" stroke="rgb(36, 218, 0)" stroke-width="2"/>
  <line x1="331" y1="311" x2="326" y2="323" stroke="rgb(36, 218, 0)" stroke-width="2"/>
  <line x1="326" y1="323" x2="314" y2="330" stroke="rgb(36, 218, 0)" stroke-width="2"/>
  <line x1="314" y1="330" x2="301" y2="328" stroke="rgb(36, 218, 0)" stroke-width="2"/>
  <line x1="301" y1="328" x2="292" y2="317" stroke="rgb(36, 218, 0)" stroke-width="2"/>
  <line x1="292" y1="317" x2="292" y2="304" stroke="rgb(36, 218, 0)" stroke-width="2"/>
  <line x1="292" y1="304" x2="301" y2="293" stroke="rgb(36, 218, 0)" stroke-width="2"/>
  <line x1="301" y1="293" x2="314" y2="291" stroke="rgb(36, 218, 0)" stroke-width="2"/>
  <line x1="314" y1="291" x2="326" y2="298" stroke="rgb(36, 218, 0)" stroke-width="2"/>
  <line x1="326" y1="298" x2="331" y2="311" stroke="rgb(36, 218, 0)" stroke-width="2"/>
  <line x1="375" y1="311" x2="371" y2="322" stroke="rgb(36, 218, 0)" stroke-width="2"/>
  <line x1="371" y1="322" x2="361" y2="330" stroke="rgb(36, 218, 0)" stroke-width="2"/>
  <line x1="361" y1="330" x2="348" y2="330" stroke="rgb(36, 218, 0)" stroke-width="2"/>
  <line x1="348" y1="330" x2="338" y2="322" stroke="rgb(36, 218, 0)" stroke-width="2"/>
  <line x1="338" y1="322" x2="335" y2="311" stroke="rgb(36, 218, 0)" stroke-width="2"/>
  <line x1="335" y1="311" x2="338" y2="299" stroke="rgb(36, 218, 0)" stroke-width="2"/>
  <line x1="338" y1="299" x2="348" y2="291" stroke="rgb(36, 218, 0)" stroke-width="2"/>
  <line x1="348" y1="291" x2="361" y2="291" stroke="rgb(36, 218, 0)" stroke-width="2"/>
  <line x1="361" y1="291" x2="371" y2="299" stroke="rgb(36, 218, 0)" stroke-width="2"/>
  <line x1="371" y1="299" x2="375" y2="311" stroke="rgb(36, 218, 0)" stroke-width="2"/>
  <line x1="64" y1="355" x2="34" y2="372" stroke="rgb(0, 255, 0)" stroke-width="2"/>
  <line x1="34" y1="372" x2="33" y2="337" stroke="rgb(0, 255, 0)" stroke-width="2"/>
  <line x1="33" y1="337" x2="64" y2="355" stroke="rgb(0, 255, 0)" stroke-width="2"/>
  <line x1="108" y1="355" x2="88" y2="375" stroke="rgb(0, 255, 0)" stroke-width="2"/>
  <line x1="88" y1="375" x2="68" y2="355" stroke="rgb(0, 255, 0)" stroke-width="2"/>
  <line x1="68" y1="355" x2="88" y2="335" stroke="rgb(0, 255, 0)" stroke-width="2"/>
  <line x1="88" y1="335" x2="108" y2="355" stroke="rgb(0, 255, 0)" stroke-width="2"/>
  <line x1="153" y1="355" x2="139" y2="374" stroke="rgb(0, 255, 0)" stroke-width="2"/>
  <line x1="139" y1="374" x2="116" y2="366" stroke="rgb(0, 255, 0)" stroke-width="2"/>
  <line x1="116" y1="366" x2="116" y2="343" stroke="rgb(0, 255, 0)" stroke-width="2"/>
  <line x1="116" y1="343" x2="139" y2="335" stroke="rgb(0, 255, 0)" stroke-width="2"/>
  <line x1="139" y1="335" x2="153" y2="355" stroke="rgb(0, 255, 0)" stroke-width="2"/>
  <line x1="197" y1="355" x2="187" y2="372" stroke="rgb(0, 255, 0)" stroke-width="2"/>
  <line x1="187" y1="372" x2="167" y2="372" stroke="rgb(0, 255, 0)" stroke-width="2"/>
  <line x1="167" y1="372" x2="157" y2="355" stroke="rgb(0, 255, 0)" stroke-width="2"/>
  <line x1="157" y1="355" x2="167" y2="337" stroke="rgb(0, 255, 0)" stroke-width="2"/>
  <line x1="167" y1="337" x2="187" y2="337" stroke="rgb(0, 255, 0)" stroke-width="2"/>
  <line x1="187" y1="337" x2="197" y2="355" stroke="rgb(0, 255, 0)" stroke-width="2"/>
  <line x1="242" y1="355" x2="234" y2="370" stroke="rgb(0, 255, 0)" stroke-width="2"/>
  <line x1="234" y1="370" x2="217" y2="374" stroke="rgb(0, 255, 0)" stroke-width="2"/>
  <line x1="217" y1="374" x2="203" y2="363" stroke="rgb(0, 255, 0)" stroke-width="2"/>
  <line x1="203" y1="363" x2="203" y2="346" stroke="rgb(0, 255, 0)" stroke-width="2"/>
  <line x1="203" y1="346" x2="217" y2="335" stroke="rgb(0, 255, 0)" stroke-width="2"/>
  <line x1="217" y1="335" x2="234" y2="339" stroke="rgb(0, 255, 0)" stroke-width="2"/>
  <line x1="234" y1="339" x2="242" y2="355" stroke="rgb(0, 255, 0)" stroke-width="2"/>
  <line x1="286" y1="355" x2="280" y2="369" stroke="rgb(0, 255, 0)" stroke-width="2"/>
  <line x1="280" y1="369" x2="266" y2="375" stroke="rgb(0, 255, 0)" stroke-width="2"/>
  <line x1="266" y1="375" x2="251" y2="369" stroke="rgb(0, 255, 0)" stroke-width="2"/>
  <line x1="251" y1="369" x2="246" y2="355" stroke="rgb(0, 255, 0)" stroke-width="2"/>
  <line x1="246" y1="355" x2="251" y2="340" stroke="rgb(0, 255, 0)" stroke-width="2"/>
  <line x1="251" y1="340" x2="266" y2="335" stroke="rgb(0, 255, 0)" stroke-width="2"/>
  <line x1="266" y1="335" x2="280" y2="340" stroke="rgb(0, 255, 0)" stroke-width="2"/>
  <line x1="280" y1="340" x2="286" y2="355" stroke="rgb(0, 255, 0)" stroke-width="2"/>
  <line x1="331" y1="355" x2="326" y2="367" stroke="rgb(0, 255, 0)" stroke-width="2"/>
  <line x1="326" y1="367" x2="314" y2="374" stroke="rgb(0, 255, 0)" stroke-width="2"/>
  <line x1="314" y1="374" x2="301" y2="372" stroke="rgb(0, 255, 0)" stroke-width="2"/>
  <line x1="301" y1="372" x2="292" y2="361" stroke="rgb(0, 255, 0)" stroke-width="2"/>
  <line x1="292" y1="361" x2="292" y2="348" stroke="rgb(0, 255, 0)" stroke-width="2"/>
  <line x1="292" y1="348" x2="301" y2="337" stroke="rgb(0, 255, 0)" stroke-width="2"/>
  <line x1="301" y1="337" x2="314" y2="335" stroke="rgb(0, 255, 0)" stroke-width="2"/>
  <line x1="314" y1="335" x2="326" y2="342" stroke="rgb(0, 255, 0)" stroke-width="2"/>
  <line x1="326" y1="342" x2="331" y2="355" stroke="rgb(0, 255, 0)" stroke-width="2"/>
  <line x1="375" y1="355" x2="371" y2="366" stroke="rgb(0, 255, 0)" stroke-width="2"/>
  <line x1="371" y1="366" x2="361" y2="374" stroke="rgb(0, 255, 0)" stroke-width="2"/>
  <line x1="361" y1="374" x2="348" y2="374" stroke="rgb(0, 255, 0)" stroke-width="2"/>
  <line x1="348" y1="374" x2="338" y2="366" stroke="rgb(0, 255, 0)" stroke-width="2"/>
  <line x1="338" y1="366" x2="335" y2="355" stroke="rgb(0, 255, 0)" stroke-width="2"/>
  <line x1="335" y1="355" x2="338" y2="343" stroke="rgb(0, 255, 0)" stroke-width="2"/>
  <line x1="338" y1="343" x2="348" y2="335" stroke="rgb(0, 255, 0)" stroke-width="2"/>
  <line x1="348" y1="335" x2="361" y2="335" stroke="rgb(0, 255, 0)" stroke-width="2"/>
  <line x1="361" y1="335" x2="371" y2="343" stroke="rgb(0, 255, 0)" stroke-width="2"/>
  <line x1="371" y1="343" x2="375" y2="355" stroke="rgb(0, 255, 0)" stroke-width="2"/>
</svg>
